<svg width="52" height="44" viewBox="0 0 52 44" fill="none" xmlns="http://www.w3.org/2000/svg">
<path d="M18.1908 17.8398L16 20.9464H18.9928L22.9091 15.405L26.1365 20.9464H29.0435C29.0435 20.9464 28.9313 20.7492 24.5014 13.1371C30.8688 13.215 33.5639 4.33875 35.5022 0C20.5983 1.48548 22.0791 10.3656 22.0791 10.3656L28.7248 5.65121L28.5627 5.80709C24.7242 9.47294 21.2506 13.5027 18.1908 17.8398Z" fill="#1E1E1E"/>
<path d="M8.76 33.665C8.76 33.965 8.74 34.235 8.7 34.475H2.625C2.675 35.075 2.885 35.545 3.255 35.885C3.625 36.225 4.08 36.395 4.62 36.395C5.4 36.395 5.955 36.06 6.285 35.39H8.55C8.31 36.19 7.85 36.85 7.17 37.37C6.49 37.88 5.655 38.135 4.665 38.135C3.865 38.135 3.145 37.96 2.505 37.61C1.875 37.25 1.38 36.745 1.02 36.095C0.67 35.445 0.495 34.695 0.495 33.845C0.495 32.985 0.67 32.23 1.02 31.58C1.37 30.93 1.86 30.43 2.49 30.08C3.12 29.73 3.845 29.555 4.665 29.555C5.455 29.555 6.16 29.725 6.78 30.065C7.41 30.405 7.895 30.89 8.235 31.52C8.585 32.14 8.76 32.855 8.76 33.665ZM6.585 33.065C6.575 32.525 6.38 32.095 6 31.775C5.62 31.445 5.155 31.28 4.605 31.28C4.085 31.28 3.645 31.44 3.285 31.76C2.935 32.07 2.72 32.505 2.64 33.065H6.585ZM13.9828 38L12.2728 35.42L10.7578 38H8.50781L11.2228 33.83L8.47781 29.69H10.8478L12.5428 32.255L14.0728 29.69H16.3228L13.5928 33.83L16.3528 38H13.9828ZM18.6934 30.89C18.9634 30.51 19.3334 30.195 19.8034 29.945C20.2834 29.685 20.8284 29.555 21.4384 29.555C22.1484 29.555 22.7884 29.73 23.3584 30.08C23.9384 30.43 24.3934 30.93 24.7234 31.58C25.0634 32.22 25.2334 32.965 25.2334 33.815C25.2334 34.665 25.0634 35.42 24.7234 36.08C24.3934 36.73 23.9384 37.235 23.3584 37.595C22.7884 37.955 22.1484 38.135 21.4384 38.135C20.8284 38.135 20.2884 38.01 19.8184 37.76C19.3584 37.51 18.9834 37.195 18.6934 36.815V41.96H16.5934V29.69H18.6934V30.89ZM23.0884 33.815C23.0884 33.315 22.9834 32.885 22.7734 32.525C22.5734 32.155 22.3034 31.875 21.9634 31.685C21.6334 31.495 21.2734 31.4 20.8834 31.4C20.5034 31.4 20.1434 31.5 19.8034 31.7C19.4734 31.89 19.2034 32.17 18.9934 32.54C18.7934 32.91 18.6934 33.345 18.6934 33.845C18.6934 34.345 18.7934 34.78 18.9934 35.15C19.2034 35.52 19.4734 35.805 19.8034 36.005C20.1434 36.195 20.5034 36.29 20.8834 36.29C21.2734 36.29 21.6334 36.19 21.9634 35.99C22.3034 35.79 22.5734 35.505 22.7734 35.135C22.9834 34.765 23.0884 34.325 23.0884 33.815ZM27.9594 26.9V38H25.8594V26.9H27.9594ZM32.8242 38.135C32.0242 38.135 31.3042 37.96 30.6642 37.61C30.0242 37.25 29.5192 36.745 29.1492 36.095C28.7892 35.445 28.6092 34.695 28.6092 33.845C28.6092 32.995 28.7942 32.245 29.1642 31.595C29.5442 30.945 30.0592 30.445 30.7092 30.095C31.3592 29.735 32.0842 29.555 32.8842 29.555C33.6842 29.555 34.4092 29.735 35.0592 30.095C35.7092 30.445 36.2192 30.945 36.5892 31.595C36.9692 32.245 37.1592 32.995 37.1592 33.845C37.1592 34.695 36.9642 35.445 36.5742 36.095C36.1942 36.745 35.6742 37.25 35.0142 37.61C34.3642 37.96 33.6342 38.135 32.8242 38.135ZM32.8242 36.305C33.2042 36.305 33.5592 36.215 33.8892 36.035C34.2292 35.845 34.4992 35.565 34.6992 35.195C34.8992 34.825 34.9992 34.375 34.9992 33.845C34.9992 33.055 34.7892 32.45 34.3692 32.03C33.9592 31.6 33.4542 31.385 32.8542 31.385C32.2542 31.385 31.7492 31.6 31.3392 32.03C30.9392 32.45 30.7392 33.055 30.7392 33.845C30.7392 34.635 30.9342 35.245 31.3242 35.675C31.7242 36.095 32.2242 36.305 32.8242 36.305ZM39.8996 30.98C40.1696 30.54 40.5196 30.195 40.9496 29.945C41.3896 29.695 41.8896 29.57 42.4496 29.57V31.775H41.8946C41.2346 31.775 40.7346 31.93 40.3946 32.24C40.0646 32.55 39.8996 33.09 39.8996 33.86V38H37.7996V29.69H39.8996V30.98ZM50.6891 33.665C50.6891 33.965 50.6691 34.235 50.6291 34.475H44.5541C44.6041 35.075 44.8141 35.545 45.1841 35.885C45.5541 36.225 46.0091 36.395 46.5491 36.395C47.3291 36.395 47.8841 36.06 48.2141 35.39H50.4791C50.2391 36.19 49.7791 36.85 49.0991 37.37C48.4191 37.88 47.5841 38.135 46.5941 38.135C45.7941 38.135 45.0741 37.96 44.4341 37.61C43.8041 37.25 43.3091 36.745 42.9491 36.095C42.5991 35.445 42.4241 34.695 42.4241 33.845C42.4241 32.985 42.5991 32.23 42.9491 31.58C43.2991 30.93 43.7891 30.43 44.4191 30.08C45.0491 29.73 45.7741 29.555 46.5941 29.555C47.3841 29.555 48.0891 29.725 48.7091 30.065C49.3391 30.405 49.8241 30.89 50.1641 31.52C50.5141 32.14 50.6891 32.855 50.6891 33.665ZM48.5141 33.065C48.5041 32.525 48.3091 32.095 47.9291 31.775C47.5491 31.445 47.0841 31.28 46.5341 31.28C46.0141 31.28 45.5741 31.44 45.2141 31.76C44.8641 32.07 44.6491 32.505 44.5691 33.065H48.5141Z" fill="#1E1E1E"/>
</svg>
